%TF.GenerationSoftware,KiCad,Pcbnew,9.0.7*%
%TF.CreationDate,2026-08-25T07:48:32-05:00*%
%TF.ProjectId,amp-op-bjt,616d702d-6f70-42d6-926a-742e6b696361,rev?*%
%TF.SameCoordinates,Original*%
%TF.FileFunction,Soldermask,Top*%
%TF.FilePolarity,Negative*%
%FSLAX46Y46*%
G04 Gerber Fmt 4.6, Leading zero omitted, Abs format (unit mm)*
G04 Created by KiCad (PCBNEW 9.0.7) date 2026-08-25 07:48:32*
%MOMM*%
%LPD*%
G01*
G04 APERTURE LIST*
%ADD10C,2.100000*%
%ADD11R,1.700000X1.700000*%
%ADD12C,1.700000*%
%ADD13R,1.500000X1.500000*%
%ADD14C,1.500000*%
G04 APERTURE END LIST*
D10*
%TO.C,REF\u002A\u002A*%
X157480000Y-78740000D03*
%TD*%
D11*
%TO.C,J4*%
X180340000Y-55880000D03*
D12*
X177800000Y-55880000D03*
%TD*%
D11*
%TO.C,J6*%
X198120000Y-55880000D03*
D12*
X200660000Y-55880000D03*
%TD*%
D11*
%TO.C,J8*%
X159830000Y-68580000D03*
D12*
X159830000Y-71120000D03*
%TD*%
D11*
%TO.C,J3*%
X180340000Y-73660000D03*
D12*
X177800000Y-73660000D03*
%TD*%
D13*
%TO.C,Q3*%
X172720000Y-66040000D03*
D14*
X172720000Y-63500000D03*
X172720000Y-60960000D03*
%TD*%
D11*
%TO.C,J9*%
X165100000Y-78740000D03*
%TD*%
D13*
%TO.C,Q5*%
X172720000Y-50800000D03*
D14*
X172720000Y-53340000D03*
X172720000Y-55880000D03*
%TD*%
D13*
%TO.C,Q4*%
X185420000Y-66040000D03*
D14*
X185420000Y-63500000D03*
X185420000Y-60960000D03*
%TD*%
D10*
%TO.C,REF\u002A\u002A*%
X200660000Y-78740000D03*
%TD*%
D13*
%TO.C,Q8*%
X193040000Y-78740000D03*
D14*
X193040000Y-76200000D03*
X193040000Y-73660000D03*
%TD*%
D13*
%TO.C,Q6*%
X185420000Y-50800000D03*
D14*
X185420000Y-53340000D03*
X185420000Y-55880000D03*
%TD*%
D13*
%TO.C,Q2*%
X185420000Y-78740000D03*
D14*
X185420000Y-76200000D03*
X185420000Y-73660000D03*
%TD*%
D11*
%TO.C,J2*%
X167450000Y-55880000D03*
D12*
X164910000Y-55880000D03*
%TD*%
D10*
%TO.C,REF\u002A\u002A*%
X157480000Y-50800000D03*
%TD*%
D13*
%TO.C,Q7*%
X193040000Y-50800000D03*
D14*
X193040000Y-53340000D03*
X193040000Y-55880000D03*
%TD*%
D13*
%TO.C,Q1*%
X172720000Y-78740000D03*
D14*
X172720000Y-76200000D03*
X172720000Y-73660000D03*
%TD*%
D11*
%TO.C,J5*%
X164910000Y-60960000D03*
D12*
X164910000Y-63500000D03*
X164910000Y-66040000D03*
X164910000Y-68580000D03*
X164910000Y-71120000D03*
X164910000Y-73660000D03*
%TD*%
D10*
%TO.C,REF\u002A\u002A*%
X200660000Y-50800000D03*
%TD*%
D11*
%TO.C,J1*%
X193040000Y-60960000D03*
D12*
X195580000Y-60960000D03*
%TD*%
D11*
%TO.C,J7*%
X165100000Y-50800000D03*
%TD*%
M02*
