M48
; DRILL file {KiCad 9.0.7} date 2026-08-25T07:48:43-0500
; FORMAT={-:-/ absolute / metric / decimal}
; #@! TF.CreationDate,2026-08-25T07:48:43-05:00
; #@! TF.GenerationSoftware,Kicad,Pcbnew,9.0.7
; #@! TF.FileFunction,Plated,1,2,PTH
FMAT,2
METRIC
; #@! TA.AperFunction,Plated,PTH,ComponentDrill
T1C0.800
; #@! TA.AperFunction,Plated,PTH,ComponentDrill
T2C1.000
%
G90
G05
T1
X172.72Y-50.8
X172.72Y-53.34
X172.72Y-55.88
X172.72Y-60.96
X172.72Y-63.5
X172.72Y-66.04
X172.72Y-73.66
X172.72Y-76.2
X172.72Y-78.74
X185.42Y-50.8
X185.42Y-53.34
X185.42Y-55.88
X185.42Y-60.96
X185.42Y-63.5
X185.42Y-66.04
X185.42Y-73.66
X185.42Y-76.2
X185.42Y-78.74
X193.04Y-50.8
X193.04Y-53.34
X193.04Y-55.88
X193.04Y-73.66
X193.04Y-76.2
X193.04Y-78.74
T2
X159.83Y-68.58
X159.83Y-71.12
X164.91Y-55.88
X164.91Y-60.96
X164.91Y-63.5
X164.91Y-66.04
X164.91Y-68.58
X164.91Y-71.12
X164.91Y-73.66
X165.1Y-50.8
X165.1Y-78.74
X167.45Y-55.88
X177.8Y-55.88
X177.8Y-73.66
X180.34Y-55.88
X180.34Y-73.66
X193.04Y-60.96
X195.58Y-60.96
X198.12Y-55.88
X200.66Y-55.88
M30
