%TF.GenerationSoftware,KiCad,Pcbnew,9.0.7*%
%TF.CreationDate,2026-08-25T07:48:32-05:00*%
%TF.ProjectId,amp-op-bjt,616d702d-6f70-42d6-926a-742e6b696361,rev?*%
%TF.SameCoordinates,Original*%
%TF.FileFunction,Copper,L1,Top*%
%TF.FilePolarity,Positive*%
%FSLAX46Y46*%
G04 Gerber Fmt 4.6, Leading zero omitted, Abs format (unit mm)*
G04 Created by KiCad (PCBNEW 9.0.7) date 2026-08-25 07:48:32*
%MOMM*%
%LPD*%
G01*
G04 APERTURE LIST*
%TA.AperFunction,ComponentPad*%
%ADD10R,1.700000X1.700000*%
%TD*%
%TA.AperFunction,ComponentPad*%
%ADD11C,1.700000*%
%TD*%
%TA.AperFunction,ComponentPad*%
%ADD12R,1.500000X1.500000*%
%TD*%
%TA.AperFunction,ComponentPad*%
%ADD13C,1.500000*%
%TD*%
G04 APERTURE END LIST*
D10*
%TO.P,J4,1,Pin_1*%
%TO.N,Input (+)*%
X180340000Y-55880000D03*
D11*
%TO.P,J4,2,Pin_2*%
X177800000Y-55880000D03*
%TD*%
D10*
%TO.P,J6,1,Pin_1*%
%TO.N,Vout*%
X198120000Y-55880000D03*
D11*
%TO.P,J6,2,Pin_2*%
X200660000Y-55880000D03*
%TD*%
D10*
%TO.P,J8,1,Pin_1*%
%TO.N,VEE*%
X159830000Y-68580000D03*
D11*
%TO.P,J8,2,Pin_2*%
%TO.N,GND*%
X159830000Y-71120000D03*
%TD*%
D10*
%TO.P,J3,1,Pin_1*%
%TO.N,Input (-)*%
X180340000Y-73660000D03*
D11*
%TO.P,J3,2,Pin_2*%
X177800000Y-73660000D03*
%TD*%
D12*
%TO.P,Q3,1,E*%
%TO.N,Net-(Q2-C)*%
X172720000Y-66040000D03*
D13*
%TO.P,Q3,2,B*%
%TO.N,Input (-)*%
X172720000Y-63500000D03*
%TO.P,Q3,3,C*%
%TO.N,Net-(Q3-C)*%
X172720000Y-60960000D03*
%TD*%
D10*
%TO.P,J9,1,Pin_1*%
%TO.N,GND*%
X165100000Y-78740000D03*
%TD*%
D12*
%TO.P,Q5,1,E*%
%TO.N,VEE*%
X172720000Y-50800000D03*
D13*
%TO.P,Q5,2,B*%
%TO.N,Net-(Q3-C)*%
X172720000Y-53340000D03*
%TO.P,Q5,3,C*%
X172720000Y-55880000D03*
%TD*%
D12*
%TO.P,Q4,1,E*%
%TO.N,Net-(Q2-C)*%
X185420000Y-66040000D03*
D13*
%TO.P,Q4,2,B*%
%TO.N,Input (+)*%
X185420000Y-63500000D03*
%TO.P,Q4,3,C*%
%TO.N,Net-(J1-Pin_1)*%
X185420000Y-60960000D03*
%TD*%
D12*
%TO.P,Q8,1,E*%
%TO.N,GND*%
X193040000Y-78740000D03*
D13*
%TO.P,Q8,2,B*%
%TO.N,Net-(J5-Pin_5)*%
X193040000Y-76200000D03*
%TO.P,Q8,3,C*%
%TO.N,Vout*%
X193040000Y-73660000D03*
%TD*%
D12*
%TO.P,Q6,1,E*%
%TO.N,VEE*%
X185420000Y-50800000D03*
D13*
%TO.P,Q6,2,B*%
%TO.N,Net-(Q3-C)*%
X185420000Y-53340000D03*
%TO.P,Q6,3,C*%
%TO.N,Net-(J1-Pin_1)*%
X185420000Y-55880000D03*
%TD*%
D12*
%TO.P,Q2,1,E*%
%TO.N,GND*%
X185420000Y-78740000D03*
D13*
%TO.P,Q2,2,B*%
%TO.N,Net-(J5-Pin_5)*%
X185420000Y-76200000D03*
%TO.P,Q2,3,C*%
%TO.N,Net-(Q2-C)*%
X185420000Y-73660000D03*
%TD*%
D10*
%TO.P,J2,1,Pin_1*%
%TO.N,VEE*%
X167450000Y-55880000D03*
D11*
%TO.P,J2,2,Pin_2*%
%TO.N,GND*%
X164910000Y-55880000D03*
%TD*%
D12*
%TO.P,Q7,1,E*%
%TO.N,VEE*%
X193040000Y-50800000D03*
D13*
%TO.P,Q7,2,B*%
%TO.N,Net-(J1-Pin_1)*%
X193040000Y-53340000D03*
%TO.P,Q7,3,C*%
%TO.N,Vout*%
X193040000Y-55880000D03*
%TD*%
D12*
%TO.P,Q1,1,E*%
%TO.N,GND*%
X172720000Y-78740000D03*
D13*
%TO.P,Q1,2,B*%
%TO.N,Net-(J5-Pin_5)*%
X172720000Y-76200000D03*
%TO.P,Q1,3,C*%
X172720000Y-73660000D03*
%TD*%
D10*
%TO.P,J5,1,Pin_1*%
%TO.N,VEE*%
X164910000Y-60960000D03*
D11*
%TO.P,J5,2,Pin_2*%
X164910000Y-63500000D03*
%TO.P,J5,3,Pin_3*%
%TO.N,GND*%
X164910000Y-66040000D03*
%TO.P,J5,4,Pin_4*%
X164910000Y-68580000D03*
%TO.P,J5,5,Pin_5*%
%TO.N,Net-(J5-Pin_5)*%
X164910000Y-71120000D03*
%TO.P,J5,6,Pin_6*%
X164910000Y-73660000D03*
%TD*%
D10*
%TO.P,J1,1,Pin_1*%
%TO.N,Net-(J1-Pin_1)*%
X193040000Y-60960000D03*
D11*
%TO.P,J1,2,Pin_2*%
%TO.N,Vout*%
X195580000Y-60960000D03*
%TD*%
D10*
%TO.P,J7,1,Pin_1*%
%TO.N,GND*%
X165100000Y-50800000D03*
%TD*%
M02*
